<svg width="27" height="25" viewBox="0 0 27 25" fill="none" xmlns="http://www.w3.org/2000/svg">
<path d="M13.1871 14.3521C9.14846 14.3521 5.86548 11.1326 5.86548 7.17193C5.86548 3.21131 9.15685 0 13.1871 0C17.2174 0 20.5087 3.21955 20.5087 7.18017C20.5087 11.1408 17.2258 14.3603 13.1871 14.3603V14.3521ZM13.1871 1.69623C10.1056 1.69623 7.59513 4.15824 7.59513 7.18017C7.59513 10.2021 10.1056 12.6641 13.1871 12.6641C16.2686 12.6641 18.7791 10.2021 18.7791 7.18017C18.7791 4.15824 16.2686 1.69623 13.1871 1.69623Z" fill="#4F4F4F"/>
<path d="M25.5214 24.5047C25.1856 24.5047 24.8665 24.3071 24.7238 23.986C23.246 20.5771 19.8539 18.3785 16.0755 18.3785H10.3072C6.52884 18.3785 3.12832 20.5771 1.65895 23.986C1.47423 24.4142 0.970451 24.62 0.525443 24.4306C0.0888322 24.2495 -0.121077 23.7472 0.0720395 23.319C1.81848 19.2843 5.84034 16.6741 10.3156 16.6741H16.0839C20.5592 16.6741 24.581 19.2843 26.3275 23.319C26.5122 23.7472 26.3107 24.2495 25.8741 24.4306C25.7649 24.48 25.6474 24.4965 25.5382 24.4965L25.5214 24.5047Z" fill="#4F4F4F"/>
</svg>
